<svg xmlns="http://www.w3.org/2000/svg" viewBox="0 0 600 400" role="img" aria-label="Farvet lyskæde">
  <defs>
    <radialGradient id="gR" cx="0.5" cy="0.5" r="0.5"><stop offset="0" stop-color="#ff6b6b" stop-opacity="0.8"/><stop offset="1" stop-color="#ff6b6b" stop-opacity="0"/></radialGradient>
    <radialGradient id="gB" cx="0.5" cy="0.5" r="0.5"><stop offset="0" stop-color="#5ab0ff" stop-opacity="0.8"/><stop offset="1" stop-color="#5ab0ff" stop-opacity="0"/></radialGradient>
    <radialGradient id="gG" cx="0.5" cy="0.5" r="0.5"><stop offset="0" stop-color="#5be08a" stop-opacity="0.8"/><stop offset="1" stop-color="#5be08a" stop-opacity="0"/></radialGradient>
    <radialGradient id="gY" cx="0.5" cy="0.5" r="0.5"><stop offset="0" stop-color="#ffd600" stop-opacity="0.8"/><stop offset="1" stop-color="#ffd600" stop-opacity="0"/></radialGradient>
    <radialGradient id="gP" cx="0.5" cy="0.5" r="0.5"><stop offset="0" stop-color="#c77bff" stop-opacity="0.8"/><stop offset="1" stop-color="#c77bff" stop-opacity="0"/></radialGradient>
    <radialGradient id="bR" cx="0.4" cy="0.35" r="0.75"><stop offset="0" stop-color="#ffc4c4"/><stop offset="1" stop-color="#e04848"/></radialGradient>
    <radialGradient id="bB" cx="0.4" cy="0.35" r="0.75"><stop offset="0" stop-color="#cfe8ff"/><stop offset="1" stop-color="#3a8fe0"/></radialGradient>
    <radialGradient id="bG" cx="0.4" cy="0.35" r="0.75"><stop offset="0" stop-color="#d2ffe3"/><stop offset="1" stop-color="#3cc06c"/></radialGradient>
    <radialGradient id="bY" cx="0.4" cy="0.35" r="0.75"><stop offset="0" stop-color="#fff3b0"/><stop offset="1" stop-color="#e0b800"/></radialGradient>
    <radialGradient id="bP" cx="0.4" cy="0.35" r="0.75"><stop offset="0" stop-color="#ecd4ff"/><stop offset="1" stop-color="#a855e0"/></radialGradient>
  </defs>

  <rect width="600" height="400" fill="#0d0c12"/>

  <!-- single draped chain -->
  <path d="M20 90 Q150 210 300 150 Q450 90 580 200" fill="none" stroke="#26252e" stroke-width="5" stroke-linecap="round"/>

  <!-- bulbs along the chain -->
  <g>
    <g transform="translate(70,133)"><circle r="34" fill="url(#gR)"/><rect x="-5" y="-20" width="10" height="12" rx="2" fill="#33323c"/><circle cy="4" r="13" fill="url(#bR)"/></g>
    <g transform="translate(150,172)"><circle r="34" fill="url(#gB)"/><rect x="-5" y="-20" width="10" height="12" rx="2" fill="#33323c"/><circle cy="4" r="13" fill="url(#bB)"/></g>
    <g transform="translate(230,172)"><circle r="34" fill="url(#gY)"/><rect x="-5" y="-20" width="10" height="12" rx="2" fill="#33323c"/><circle cy="4" r="13" fill="url(#bY)"/></g>
    <g transform="translate(310,152)"><circle r="34" fill="url(#gG)"/><rect x="-5" y="-20" width="10" height="12" rx="2" fill="#33323c"/><circle cy="4" r="13" fill="url(#bG)"/></g>
    <g transform="translate(390,130)"><circle r="34" fill="url(#gP)"/><rect x="-5" y="-20" width="10" height="12" rx="2" fill="#33323c"/><circle cy="4" r="13" fill="url(#bP)"/></g>
    <g transform="translate(470,140)"><circle r="34" fill="url(#gR)"/><rect x="-5" y="-20" width="10" height="12" rx="2" fill="#33323c"/><circle cy="4" r="13" fill="url(#bR)"/></g>
    <g transform="translate(545,180)"><circle r="34" fill="url(#gB)"/><rect x="-5" y="-20" width="10" height="12" rx="2" fill="#33323c"/><circle cy="4" r="13" fill="url(#bB)"/></g>
  </g>

  <!-- soft floor reflection -->
  <ellipse cx="300" cy="360" rx="240" ry="26" fill="#c77bff" opacity="0.05"/>
</svg>
